{
  "accessors": [
    {
      "name": "arvore6-Mesh_0_positions",
      "componentType": 5126,
      "count": 6708,
      "min": [
        -2.4841060638427734,
        -0.041788000613451004,
        -3.02305006980896
      ],
      "max": [
        3.0379528999328613,
        6.019828796386719,
        2.8815391063690186
      ],
      "type": "VEC3",
      "bufferView": 0,
      "byteOffset": 0
    },
    {
      "name": "arvore6-Mesh_0_normals",
      "componentType": 5126,
      "count": 6708,
      "min": [
        -0.9999973773956299,
        -0.9999988675117493,
        -0.9999972581863403
      ],
      "max": [
        0.9999995827674866,
        1,
        0.9999977946281433
      ],
      "type": "VEC3",
      "bufferView": 1,
      "byteOffset": 0
    },
    {
      "name": "arvore6-Mesh_0_indices",
      "componentType": 5123,
      "count": 33849,
      "min": [
        0
      ],
      "max": [
        6707
      ],
      "type": "SCALAR",
      "bufferView": 2,
      "byteOffset": 0
    },
    {
      "name": "arvore6-Mesh_1_positions",
      "componentType": 5126,
      "count": 13290,
      "min": [
        -2.6173369884490967,
        1.8939210176467896,
        -3.1489028930664062
      ],
      "max": [
        3.169226884841919,
        6.146542072296143,
        3.0088980197906494
      ],
      "type": "VEC3",
      "bufferView": 0,
      "byteOffset": 80496
    },
    {
      "name": "arvore6-Mesh_1_normals",
      "componentType": 5126,
      "count": 13290,
      "min": [
        -0.9993516802787781,
        -0.9994733929634094,
        -0.9999593496322632
      ],
      "max": [
        0.9993516206741333,
        0.9994733929634094,
        0.999958872795105
      ],
      "type": "VEC3",
      "bufferView": 1,
      "byteOffset": 80496
    },
    {
      "name": "arvore6-Mesh_1_indices",
      "componentType": 5123,
      "count": 13290,
      "min": [
        0
      ],
      "max": [
        13289
      ],
      "type": "SCALAR",
      "bufferView": 2,
      "byteOffset": 67700
    }
  ],
  "asset": {
    "generator": "obj2gltf",
    "version": "2.0"
  },
  "buffers": [
    {
      "name": "Arvore2",
      "byteLength": 574232,
      "uri": "data:application/octet-stream;base64,"
    }
  ],
  "bufferViews": [
    {
      "name": "bufferView_0",
      "buffer": 0,
      "byteLength": 239976,
      "byteOffset": 0,
      "byteStride": 12,
      "target": 34962
    },
    {
      "name": "bufferView_1",
      "buffer": 0,
      "byteLength": 239976,
      "byteOffset": 239976,
      "byteStride": 12,
      "target": 34962
    },
    {
      "name": "bufferView_2",
      "buffer": 0,
      "byteLength": 94280,
      "byteOffset": 479952,
      "target": 34963
    }
  ],
  "materials": [
    {
      "name": "Mat_2_-1.001",
      "pbrMetallicRoughness": {
        "baseColorFactor": [
          0.190175,
          0.102375,
          0.069156,
          1
        ],
        "metallicFactor": 0,
        "roughnessFactor": 0.87254902
      },
      "emissiveFactor": [
        0,
        0,
        0
      ],
      "alphaMode": "OPAQUE",
      "doubleSided": false
    },
    {
      "name": "Mat_1_-1.001",
      "pbrMetallicRoughness": {
        "baseColorFactor": [
          0.307007,
          0.6,
          0.046831,
          1
        ],
        "metallicFactor": 0,
        "roughnessFactor": 0.87254902
      },
      "emissiveFactor": [
        0,
        0,
        0
      ],
      "alphaMode": "OPAQUE",
      "doubleSided": false
    }
  ],
  "meshes": [
    {
      "name": "arvore6-Mesh",
      "primitives": [
        {
          "attributes": {
            "POSITION": 0,
            "NORMAL": 1
          },
          "indices": 2,
          "material": 0,
          "mode": 4
        },
        {
          "attributes": {
            "POSITION": 3,
            "NORMAL": 4
          },
          "indices": 5,
          "material": 1,
          "mode": 4
        }
      ]
    }
  ],
  "nodes": [
    {
      "name": "arvore6",
      "mesh": 0
    }
  ],
  "scene": 0,
  "scenes": [
    {
      "nodes": [
        0
      ]
    }
  ]
}
